<svg xmlns="http://www.w3.org/2000/svg" xmlns:xlink="http://www.w3.org/1999/xlink" width="500" zoomAndPan="magnify" viewBox="0 0 375 374.999991" height="500" preserveAspectRatio="xMidYMid meet" version="1.0"><defs><clipPath id="id1"><path d="M 22.117188 101.296875 L 352 101.296875 L 352 273.796875 L 22.117188 273.796875 Z M 22.117188 101.296875 " clip-rule="nonzero"/></clipPath></defs><rect x="-37.5" width="450" fill="#ffffff" y="-37.499999" height="449.999989" fill-opacity="1"/><rect x="-37.5" width="450" fill="#737373" y="-37.499999" height="449.999989" fill-opacity="1"/><rect x="-37.5" width="450" fill="#ffffff" y="-37.499999" height="449.999989" fill-opacity="1"/><rect x="-37.5" width="450" fill="#737373" y="-37.499999" height="449.999989" fill-opacity="1"/><g clip-path="url(#id1)"><path fill="#ffffff" d="M 186.777344 273.390625 C 185.859375 273.390625 184.972656 273.214844 184.125 272.863281 C 183.273438 272.515625 182.519531 272.015625 181.867188 271.371094 L 24.152344 113.550781 C 23.847656 113.222656 23.578125 112.871094 23.339844 112.492188 C 23.101562 112.113281 22.902344 111.71875 22.742188 111.300781 C 22.582031 110.882812 22.464844 110.457031 22.386719 110.015625 C 22.308594 109.578125 22.273438 109.136719 22.277344 108.6875 C 22.285156 108.242188 22.335938 107.800781 22.429688 107.363281 C 22.519531 106.925781 22.652344 106.503906 22.828125 106.09375 C 23 105.679688 23.214844 105.289062 23.460938 104.921875 C 23.710938 104.550781 23.992188 104.207031 24.308594 103.890625 C 24.625 103.574219 24.964844 103.292969 25.335938 103.042969 C 25.707031 102.792969 26.09375 102.582031 26.507812 102.40625 C 26.917969 102.230469 27.339844 102.097656 27.777344 102.003906 C 28.210938 101.914062 28.652344 101.863281 29.101562 101.855469 C 29.546875 101.847656 29.988281 101.878906 30.429688 101.957031 C 30.867188 102.035156 31.296875 102.15625 31.710938 102.316406 C 32.128906 102.472656 32.523438 102.671875 32.902344 102.910156 C 33.28125 103.144531 33.632812 103.417969 33.960938 103.722656 L 186.777344 256.640625 L 339.597656 103.722656 C 339.921875 103.417969 340.273438 103.144531 340.652344 102.910156 C 341.03125 102.671875 341.429688 102.472656 341.84375 102.316406 C 342.261719 102.15625 342.6875 102.035156 343.128906 101.957031 C 343.566406 101.882812 344.011719 101.847656 344.457031 101.855469 C 344.902344 101.863281 345.34375 101.914062 345.78125 102.003906 C 346.214844 102.097656 346.640625 102.230469 347.050781 102.40625 C 347.460938 102.582031 347.851562 102.792969 348.21875 103.042969 C 348.589844 103.292969 348.933594 103.574219 349.246094 103.890625 C 349.5625 104.207031 349.84375 104.550781 350.09375 104.921875 C 350.34375 105.292969 350.554688 105.683594 350.726562 106.09375 C 350.902344 106.503906 351.035156 106.925781 351.128906 107.363281 C 351.21875 107.800781 351.269531 108.242188 351.277344 108.6875 C 351.285156 109.136719 351.25 109.578125 351.171875 110.015625 C 351.09375 110.457031 350.972656 110.882812 350.8125 111.300781 C 350.652344 111.71875 350.453125 112.113281 350.214844 112.492188 C 349.980469 112.871094 349.707031 113.222656 349.402344 113.550781 L 191.71875 271.371094 C 191.058594 272.019531 190.304688 272.519531 189.449219 272.871094 C 188.59375 273.21875 187.703125 273.394531 186.777344 273.390625 Z M 186.777344 273.390625 " fill-opacity="1" fill-rule="nonzero"/></g></svg>